<?xml version="1.0" encoding="UTF-8" standalone="no"?>
<!DOCTYPE svg PUBLIC "-//W3C//DTD SVG 1.1//EN" "http://www.w3.org/Graphics/SVG/1.1/DTD/svg11.dtd">
<svg width="100%" height="100%" viewBox="0 0 1920 800" version="1.1" xmlns="http://www.w3.org/2000/svg" xmlns:xlink="http://www.w3.org/1999/xlink" xml:space="preserve" xmlns:serif="http://www.serif.com/" style="fill-rule:evenodd;clip-rule:evenodd;stroke-linejoin:round;stroke-miterlimit:2;">
    <g id="CARD-3" transform="matrix(1,0,0,0.664096,0,271.881)">
        <rect x="0" y="-409.4" width="1920" height="1218.8" style="fill:rgb(217,222,234);"/>
    </g>
    <g transform="matrix(0.626541,0,0,0.626541,577.7,1200.31)">
        <g id="Clip">
            <g id="SHAPE" transform="matrix(1,0,0,1,670.347,-232.797)">
                <path d="M1298.9,-3145.4L2618.5,745L1702.8,1055.6C1651.6,968.8 1569.6,897 1479.9,848.4C1338.1,771.6 1176.9,740.7 1020.9,700.1C933,677.4 832,637 811.9,548.5C799,492 824.8,435 837.2,378.4C869.8,229.3 798.7,63.2 668.3,-16.1C635.9,-35.8 599.1,-51.8 577.4,-82.9C510.4,-178.9 639.3,-301.7 627,-418.2C622.6,-460.3 599.6,-498 574.6,-532.2C300.4,-908.8 -209.4,-1002.6 -628.8,-1205.5C-751.2,-1264.8 -871.1,-1337.6 -955,-1444.6C-1038.9,-1551.7 -1081.4,-1698.9 -1036.1,-1827.1C-974.1,-2002.4 -776.5,-2088.4 -593.7,-2122.5C-410.9,-2156.6 -215.6,-2161.3 -56,-2256.6C117.6,-2360.3 216,-2550.9 351,-2701.3C418.6,-2776.6 495.6,-2841.8 577.8,-2900.8L1298.9,-3145.4Z" style="fill:rgb(192,203,221);fill-rule:nonzero;"/>
            </g>
            <g id="SHAPE-2" transform="matrix(1,0,0,1,1554.57,232.803)">
                <path d="M1733.2,-3610.3L3053,279.4L2137.2,590C2086,503.2 2004,431.5 1914.3,382.9C1772.5,306.1 1611.3,275.2 1455.2,234.7C1367.3,211.9 1266.3,171.6 1246.2,83.1C1233.4,26.6 1259.2,-30.4 1271.5,-87C1304.1,-236.1 1233,-402.1 1102.6,-481.5C1070.2,-501.2 1033.4,-517.2 1011.7,-548.3C944.7,-644.3 1073.6,-767.1 1061.3,-883.5C1056.9,-925.6 690.646,-616.954 665.746,-651.154C522.523,-1022.87 547.305,-1380.02 -194.5,-1670.7C-316.9,-1730 -436.8,-1802.7 -520.7,-1909.8C-604.6,-2016.8 -647.1,-2164 -601.8,-2292.2C-539.8,-2467.4 -342.2,-2553.5 -159.4,-2587.6C23.4,-2621.7 218.7,-2626.4 378.3,-2721.7C551.8,-2825.3 650.2,-3015.9 785.2,-3166.2C852.8,-3241.5 929.8,-3306.7 1012,-3365.7L1733.2,-3610.3Z" style="fill:rgb(129,146,176);fill-rule:nonzero;"/>
            </g>
        </g>
    </g>
</svg>
