<?xml version="1.0" encoding="UTF-8" standalone="no"?>
<!DOCTYPE svg PUBLIC "-//W3C//DTD SVG 1.1//EN" "http://www.w3.org/Graphics/SVG/1.1/DTD/svg11.dtd">
<svg width="100%" height="100%" viewBox="0 0 2812 2812" version="1.1" xmlns="http://www.w3.org/2000/svg" xmlns:xlink="http://www.w3.org/1999/xlink" xml:space="preserve" xmlns:serif="http://www.serif.com/" style="fill-rule:evenodd;clip-rule:evenodd;stroke-linejoin:round;stroke-miterlimit:2;">
    <g transform="matrix(1,0,0,1,-975,-812)">
        <g>
            <g transform="matrix(0.746285,0,0,0.746285,-530.256,-2612.7)">
                <path d="M5785,5531C5785,5011.1 5362.9,4589 4843,4589L2959,4589C2439.1,4589 2017,5011.1 2017,5531L2017,7415C2017,7934.9 2439.1,8357 2959,8357L4843,8357C5362.9,8357 5785,7934.9 5785,7415L5785,5531Z" style="fill:rgb(235,235,235);"/>
            </g>
            <g transform="matrix(17.3891,0,0,17.3891,-4564.2,-18886.6)">
                <text x="356.575px" y="1231.52px" style="font-family:'PingFang-SC-Bold', 'PingFang SC', sans-serif;font-size:50px;fill:rgb(33,50,91);">HCI</text>
            </g>
            <g transform="matrix(0.655914,0,0,1.28502,679.559,-413.841)">
                <rect x="2036" y="1059" width="1116" height="621" style="fill:rgb(33,50,91);"/>
            </g>
            <g transform="matrix(0.802326,0,0,0.802326,333.465,430.953)">
                <circle cx="2552" cy="3159" r="387" style="fill:rgb(33,50,91);"/>
            </g>
            <g transform="matrix(1,0,0,0.386612,-192,2165.97)">
                <path d="M2573,2597L2939,3329L2207,3329L2573,2597Z" style="fill:rgb(33,50,91);"/>
            </g>
            <path d="M1866.5,1184.75L1866.5,1386.36C1657.19,1417.84 1491,1559.95 1491,1760.81L1491,2675.2C1491,2880.07 1653.46,3017.93 1866.5,3044.27L1866.5,3251.25L1828.88,3251.25C1524.15,3251.25 1276.75,3024.18 1276.75,2744.49L1276.75,1691.51C1276.75,1411.82 1524.15,1184.75 1828.88,1184.75L1866.5,1184.75ZM2895.5,1184.75L2933.12,1184.75C3237.85,1184.75 3485.25,1411.82 3485.25,1691.51L3485.25,2744.49C3485.25,3024.18 3237.85,3251.25 2933.12,3251.25L2895.5,3251.25L2895.5,3046.79C3120.44,3028.32 3295.5,2887.86 3295.5,2675.2L3295.5,1760.81C3295.5,1544.1 3125.41,1395.76 2895.5,1381L2895.5,1184.75Z" style="fill:rgb(33,50,91);"/>
            <g transform="matrix(6.12323e-17,1,-1,6.12323e-17,4819,1072)">
                <path d="M2070.5,2804L2381,3092L1760,3092L2070.5,2804Z" style="fill:rgb(33,50,91);"/>
            </g>
            <g transform="matrix(-6.12323e-17,1,1,6.12323e-17,-8.5,-780)">
                <path d="M2070.5,2804L2381,3092L1760,3092L2070.5,2804Z" style="fill:rgb(33,50,91);"/>
            </g>
            <g transform="matrix(0.746285,0,0,0.746285,-530.256,-2612.7)">
                <path d="M5785,5531C5785,5011.1 5362.9,4589 4843,4589L2959,4589C2439.1,4589 2017,5011.1 2017,5531L2017,7415C2017,7934.9 2439.1,8357 2959,8357L4843,8357C5362.9,8357 5785,7934.9 5785,7415L5785,5531Z" style="fill:rgb(235,235,235);"/>
            </g>
            <g transform="matrix(17.3891,0,0,17.3891,-4598.54,-18873.5)">
                <text x="356.575px" y="1231.52px" style="font-family:'SourceHanSansTC-Heavy', 'Source Han Sans TC', sans-serif;font-weight:900;font-size:50px;fill:rgb(55,125,255);">HCI</text>
            </g>
            <g transform="matrix(0.802326,0,0,0.802326,333.465,430.953)">
                <circle cx="2552" cy="3159" r="387" style="fill:rgb(55,125,255);"/>
            </g>
            <g transform="matrix(1,0,0,0.386612,-192,2165.97)">
                <path d="M2573,2597L2939,3329L2207,3329L2573,2597Z" style="fill:rgb(55,125,255);"/>
            </g>
            <path d="M1866.5,1184.75L1866.5,1386.36C1657.19,1417.84 1491,1559.95 1491,1760.81L1491,2675.2C1491,2880.07 1653.46,3017.93 1866.5,3044.27L1866.5,3251.25L1828.88,3251.25C1524.15,3251.25 1276.75,3024.18 1276.75,2744.49L1276.75,1691.51C1276.75,1411.82 1524.15,1184.75 1828.88,1184.75L1866.5,1184.75ZM2895.5,1184.75L2933.12,1184.75C3237.85,1184.75 3485.25,1411.82 3485.25,1691.51L3485.25,2744.49C3485.25,3024.18 3237.85,3251.25 2933.12,3251.25L2895.5,3251.25L2895.5,3046.79C3120.44,3028.32 3295.5,2887.86 3295.5,2675.2L3295.5,1760.81C3295.5,1544.1 3125.41,1395.76 2895.5,1381L2895.5,1184.75Z" style="fill:rgb(55,125,255);"/>
            <g transform="matrix(6.12323e-17,1,-1,6.12323e-17,4819,1072)">
                <path d="M2070.5,2804L2381,3092L1760,3092L2070.5,2804Z" style="fill:rgb(55,125,255);"/>
            </g>
            <g transform="matrix(-6.12323e-17,1,1,6.12323e-17,-8.5,-780)">
                <path d="M2070.5,2804L2381,3092L1760,3092L2070.5,2804Z" style="fill:rgb(55,125,255);"/>
            </g>
            <g transform="matrix(1,0,0,1.1582,-185,-342.077)">
                <path d="M2932,1269.92C2932,1183.32 2850.56,1113 2750.25,1113L2386.75,1113C2286.44,1113 2205,1183.32 2205,1269.92L2205,1645.08C2205,1731.68 2286.44,1802 2386.75,1802L2750.25,1802C2850.56,1802 2932,1731.68 2932,1645.08L2932,1269.92Z" style="fill:rgb(55,125,255);"/>
            </g>
        </g>
    </g>
</svg>
