<?xml version="1.0" encoding="UTF-8" standalone="no"?>
<!DOCTYPE svg PUBLIC "-//W3C//DTD SVG 1.1//EN" "http://www.w3.org/Graphics/SVG/1.1/DTD/svg11.dtd">
<svg width="100%" height="100%" viewBox="0 0 5446 2726" version="1.1" xmlns="http://www.w3.org/2000/svg" xmlns:xlink="http://www.w3.org/1999/xlink" xml:space="preserve" xmlns:serif="http://www.serif.com/" style="fill-rule:evenodd;clip-rule:evenodd;stroke-linecap:round;stroke-linejoin:round;stroke-miterlimit:1.5;">
    <g transform="matrix(1,0,0,1,-3879,-10025)">
        <g>
            <g transform="matrix(0.707107,0.707107,-0.707107,0.707107,4866.45,2949.28)">
                <path d="M6719.53,5263.25C6719.53,5021.37 6523.16,4825 6281.28,4825L5404.78,4825C5162.91,4825 4966.53,5021.37 4966.53,5263.25L4966.53,6139.75C4966.53,6381.63 5162.91,6578 5404.78,6578L6281.28,6578C6523.16,6578 6719.53,6381.63 6719.53,6139.75L6719.53,5263.25Z" style="fill:white;stroke:rgb(55,125,255);stroke-width:58.33px;"/>
            </g>
            <g transform="matrix(0.707107,0.707107,-0.707107,0.707107,6498.57,2949.28)">
                <path d="M6719.53,5263.25C6719.53,5021.37 6523.16,4825 6281.28,4825L5404.78,4825C5162.91,4825 4966.53,5021.37 4966.53,5263.25L4966.53,6139.75C4966.53,6381.63 5162.91,6578 5404.78,6578L6281.28,6578C6523.16,6578 6719.53,6381.63 6719.53,6139.75L6719.53,5263.25Z" style="fill:white;stroke:rgb(55,125,255);stroke-width:58.33px;"/>
            </g>
            <g transform="matrix(0.707107,0.707107,-0.707107,0.707107,8137.45,2949.28)">
                <path d="M6719.53,5263.25C6719.53,5021.37 6523.16,4825 6281.28,4825L5404.78,4825C5162.91,4825 4966.53,5021.37 4966.53,5263.25L4966.53,6139.75C4966.53,6381.63 5162.91,6578 5404.78,6578L6281.28,6578C6523.16,6578 6719.53,6381.63 6719.53,6139.75L6719.53,5263.25Z" style="fill:white;stroke:rgb(55,125,255);stroke-width:58.33px;"/>
            </g>
            <g transform="matrix(1.39912,0,0,1.39912,-3985.44,4040.29)">
                <text x="6062.27px" y="5378.21px" style="font-family:'SourceHanSansTC-Heavy', 'Source Han Sans TC', sans-serif;font-weight:900;font-size:869.453px;fill:rgb(55,125,255);">H</text>
            </g>
            <g transform="matrix(1.39912,0,0,1.39912,-2306.49,4040.29)">
                <text x="6062.27px" y="5378.21px" style="font-family:'SourceHanSansTC-Heavy', 'Source Han Sans TC', sans-serif;font-weight:900;font-size:869.453px;fill:rgb(55,125,255);">C</text>
            </g>
            <g transform="matrix(1.39912,0,0,1.39912,-457.763,4040.29)">
                <text x="6062.27px" y="5378.21px" style="font-family:'SourceHanSansTC-Heavy', 'Source Han Sans TC', sans-serif;font-weight:900;font-size:869.453px;fill:rgb(55,125,255);">I</text>
            </g>
            <g transform="matrix(0.455548,0,0,0.455548,2059.05,10265.3)">
                <text x="5873.26px" y="5440.46px" style="font-family:'SourceHanSansTC-Heavy', 'Source Han Sans TC', sans-serif;font-weight:900;font-size:1006.11px;fill:rgb(55,125,255);">POS<tspan x="7975.04px 8585.75px 9323.23px 10024.5px " y="5440.46px 5440.46px 5440.46px 5440.46px ">TGRA</tspan>DU<tspan x="12176.6px 12754.1px " y="5440.46px 5440.46px ">AT</tspan>E</text>
            </g>
        </g>
    </g>
</svg>
