<?xml version="1.0" encoding="UTF-8" standalone="no"?>
<!DOCTYPE svg PUBLIC "-//W3C//DTD SVG 1.1//EN" "http://www.w3.org/Graphics/SVG/1.1/DTD/svg11.dtd">
<svg width="100%" height="100%" viewBox="0 0 2813 2812" version="1.1" xmlns="http://www.w3.org/2000/svg" xmlns:xlink="http://www.w3.org/1999/xlink" xml:space="preserve" xmlns:serif="http://www.serif.com/" style="fill-rule:evenodd;clip-rule:evenodd;stroke-linecap:round;stroke-linejoin:round;stroke-miterlimit:1.5;">
    <g transform="matrix(1,0,0,1,-5131,-800)">
        <g>
            <g transform="matrix(0.746285,0,0,0.746285,3626.24,-2624.7)">
                <path d="M5785,5531C5785,5011.1 5362.9,4589 4843,4589L2959,4589C2439.1,4589 2017,5011.1 2017,5531L2017,7415C2017,7934.9 2439.1,8357 2959,8357L4843,8357C5362.9,8357 5785,7934.9 5785,7415L5785,5531Z" style="fill:rgb(235,235,235);"/>
            </g>
            <path d="M5490.5,889.892L5490.5,2880.52C5490.5,3106.2 5673.73,3289.43 5899.41,3289.43L7831.63,3289.43C7706.42,3483.46 7488.35,3612 7240.5,3612L5834.5,3612C5446.5,3612 5131.5,3297 5131.5,2909L5131.5,1503C5131.5,1239.94 5276.3,1010.43 5490.5,889.892Z" style="fill:rgb(55,125,255);"/>
            <path d="M5519.68,2996L6351,2996L6345,2067L7208,2067L7220,1119L7630,1110" style="fill:none;stroke:rgb(55,125,255);stroke-width:195.83px;"/>
            <g transform="matrix(-1,1.10482e-17,1.10482e-17,-0.909785,13654.7,4125.72)">
                <path d="M6014.98,3314.76L6018.68,2735.23L6870,2739.62L6862,1747.35L7712.84,1733.06L7707,764.703" style="fill:none;stroke:rgb(55,125,255);stroke-width:204.86px;"/>
            </g>
            <g transform="matrix(0.614384,0,0,0.192259,4280.46,844.006)">
                <path d="M5785,5531C5785,5011.1 5652.91,4589 5490.22,4589L2311.78,4589C2149.09,4589 2017,5011.1 2017,5531L2017,7415C2017,7934.9 2149.09,8357 2311.78,8357L5490.22,8357C5652.91,8357 5785,7934.9 5785,7415L5785,5531Z" style="fill:rgb(235,235,235);"/>
            </g>
            <g transform="matrix(17.3891,0,0,17.3891,-351.149,-19003)">
                <text x="356.575px" y="1231.52px" style="font-family:'SourceHanSansTC-Heavy', 'Source Han Sans TC', sans-serif;font-weight:900;font-size:50px;fill:rgb(55,125,255);">HEC</text>
            </g>
        </g>
    </g>
</svg>
