<?xml version="1.0" encoding="UTF-8" standalone="no"?>
<!DOCTYPE svg PUBLIC "-//W3C//DTD SVG 1.1//EN" "http://www.w3.org/Graphics/SVG/1.1/DTD/svg11.dtd">
<svg width="100%" height="100%" viewBox="0 0 2812 2813" version="1.1" xmlns="http://www.w3.org/2000/svg" xmlns:xlink="http://www.w3.org/1999/xlink" xml:space="preserve" xmlns:serif="http://www.serif.com/" style="fill-rule:evenodd;clip-rule:evenodd;stroke-linejoin:round;stroke-miterlimit:2;">
    <g transform="matrix(1,0,0,1,-976,-4576)">
        <g>
            <g transform="matrix(0.746285,0,0,0.746285,-529.256,1151.95)">
                <path d="M5785,5531C5785,5011.1 5362.9,4589 4843,4589L2959,4589C2439.1,4589 2017,5011.1 2017,5531L2017,7415C2017,7934.9 2439.1,8357 2959,8357L4843,8357C5362.9,8357 5785,7934.9 5785,7415L5785,5531Z" style="fill:rgb(235,235,235);"/>
            </g>
            <g transform="matrix(0.707107,0.707107,-1.01648,1.01648,6787.72,-1662.01)">
                <path d="M2531,5012.57C2531,4954.82 2463.7,4908 2380.67,4908L2165.33,4908C2082.3,4908 2015,4954.82 2015,5012.57L2015,6523L2531,6523L2531,5012.57Z" style="fill:rgb(55,125,255);"/>
                <g transform="matrix(0.793846,-2.52466e-17,2.52466e-17,-1,386.822,13582.7)">
                    <path d="M2299.16,6714.97C2312.7,6698.23 2342.8,6687.45 2376,6687.45C2409.2,6687.45 2439.3,6698.23 2452.84,6714.97C2548.94,6833.73 2701,7021.65 2701,7021.65L2051,7021.65C2051,7021.65 2203.06,6833.73 2299.16,6714.97Z" style="fill:rgb(55,125,255);"/>
                </g>
            </g>
            <path d="M3702.54,7021.65C3583.25,7240.24 3351.32,7388.65 3085,7388.65L1679,7388.65C1412.68,7388.65 1180.75,7240.24 1061.46,7021.65L3702.54,7021.65Z" style="fill:rgb(55,125,255);"/>
            <g transform="matrix(0.746285,0,0,0.171293,-529.256,4913.37)">
                <path d="M5785,5531C5785,5011.1 5688.12,4589 5568.78,4589L2233.22,4589C2113.88,4589 2017,5011.1 2017,5531L2017,7415C2017,7934.9 2113.88,8357 2233.22,8357L5568.78,8357C5688.12,8357 5785,7934.9 5785,7415L5785,5531Z" style="fill:rgb(235,235,235);"/>
            </g>
            <g transform="matrix(17.3891,0,0,17.3891,-4596.17,-15147.7)">
                <text x="356.575px" y="1231.52px" style="font-family:'SourceHanSansTC-Heavy', 'Source Han Sans TC', sans-serif;font-weight:900;font-size:50px;fill:rgb(55,125,255);">P<tspan x="389.725px " y="1231.52px ">e</tspan>n</text>
            </g>
        </g>
    </g>
</svg>
